#N canvas 264 152 1016 636 10;
#X obj 1285 601 env~ 16384;
#X floatatom 1285 620 0 0 0 0 - - -;
#X obj 1258 536 bng 15 250 50 0 empty empty empty 17 7 0 10 -262144
-1 -1;
#X obj 1296 308 env~ 16384;
#X floatatom 1296 327 0 0 0 0 - - -;
#X obj 1269 243 bng 15 250 50 0 empty empty empty 17 7 0 10 -262144
-1 -1;
#N canvas 106 27 995 636 audio 0;
#X msg 1285 17 clear;
#X msg 605 63 1;
#X msg 605 84 0;
#X obj 645 184 env~ 16384;
#X floatatom 645 203 0 0 0 0 - - -;
#X msg 606 106 print;
#X obj 526 216 dac~;
#X obj 739 183 env~ 16384;
#X floatatom 739 202 0 0 0 0 - - -;
#X obj 536 131 readsf~ 4 1e+06;
#X msg 545 62 start;
#X msg 545 85 stop;
#X obj 780 79 oneshot;
#X obj 712 118 bng 15 250 50 0 empty empty empty 17 7 0 10 -262144
-1 -1;
#X obj 782 35 tgl 15 0 empty empty empty 0 -6 0 8 -262144 -1 -1 0 1
;
#X obj 783 7 tgl 15 0 empty empty empty 0 -6 0 8 -262144 -1 -1 0 1
;
#X obj 780 111 tgl 15 0 empty empty empty 0 -6 0 8 -262144 -1 -1 0
1;
#X obj 527 186 *~ 0.5;
#X obj 586 185 *~ 0.5;
#X msg 288 299 1;
#X msg 288 320 0;
#X obj 328 420 env~ 16384;
#X floatatom 328 439 0 0 0 0 - - -;
#X msg 289 342 print;
#X obj 209 452 dac~;
#X obj 422 419 env~ 16384;
#X floatatom 422 438 0 0 0 0 - - -;
#X obj 219 367 readsf~ 4 1e+06;
#X msg 228 298 start;
#X msg 228 321 stop;
#X obj 463 315 oneshot;
#X obj 395 354 bng 15 250 50 0 empty empty empty 17 7 0 10 -262144
-1 -1;
#X obj 465 271 tgl 15 0 empty empty empty 0 -6 0 8 -262144 -1 -1 0
13;
#X obj 466 243 tgl 15 0 empty empty empty 0 -6 0 8 -262144 -1 -1 0
13;
#X obj 463 347 tgl 15 0 empty empty empty 0 -6 0 8 -262144 -1 -1 0
13;
#X obj 210 422 *~ 0.5;
#X obj 269 421 *~ 0.5;
#X msg 593 544 1;
#X msg 593 565 0;
#X obj 633 665 env~ 16384;
#X floatatom 633 684 0 0 0 0 - - -;
#X msg 594 587 print;
#X obj 514 697 dac~;
#X obj 727 664 env~ 16384;
#X floatatom 727 683 0 0 0 0 - - -;
#X obj 524 612 readsf~ 4 1e+06;
#X msg 533 543 start;
#X msg 533 566 stop;
#X obj 768 560 oneshot;
#X obj 700 599 bng 15 250 50 0 empty empty empty 17 7 0 10 -262144
-1 -1;
#X obj 770 516 tgl 15 0 empty empty empty 0 -6 0 8 -262144 -1 -1 0
14;
#X obj 771 488 tgl 15 0 empty empty empty 0 -6 0 8 -262144 -1 -1 0
14;
#X obj 768 592 tgl 15 0 empty empty empty 0 -6 0 8 -262144 -1 -1 0
14;
#X obj 515 667 *~ 0.5;
#X obj 574 666 *~ 0.5;
#X msg 857 70 clear;
#X msg 825 535 clear;
#X msg 429 371 clear;
#X obj 958 30 inlet;
#X obj 927 114 hsl 128 15 0 1 0 0 empty empty empty -2 -8 0 10 -4034
-1 -1 12700 1;
#X msg 645 312 1;
#X msg 645 333 0;
#X obj 685 433 env~ 16384;
#X floatatom 685 452 0 0 0 0 - - -;
#X msg 646 355 print;
#X obj 566 465 dac~;
#X obj 779 432 env~ 16384;
#X floatatom 779 451 0 0 0 0 - - -;
#X obj 576 380 readsf~ 4 1e+06;
#X msg 585 311 start;
#X msg 585 334 stop;
#X obj 820 328 oneshot;
#X obj 752 367 bng 15 250 50 0 empty empty empty 17 7 0 10 -262144
-1 -1;
#X obj 822 284 tgl 15 0 empty empty empty 0 -6 0 8 -262144 -1 -1 0
14;
#X obj 823 256 tgl 15 0 empty empty empty 0 -6 0 8 -262144 -1 -1 0
14;
#X obj 820 360 tgl 15 0 empty empty empty 0 -6 0 8 -262144 -1 -1 0
14;
#X obj 567 435 *~ 0.5;
#X obj 626 434 *~ 0.5;
#X msg 877 303 clear;
#X obj 230 67 r vaca;
#X obj 229 110 sel 1;
#X obj 298 108 sel 1;
#X obj 299 65 r perro;
#X obj 356 106 sel 1;
#X obj 357 63 r pajaro;
#X obj 231 176 sel 1;
#X obj 232 133 r sapo;
#X msg 279 536 1;
#X msg 279 557 0;
#X obj 319 657 env~ 16384;
#X floatatom 319 676 0 0 0 0 - - -;
#X msg 280 579 print;
#X obj 200 689 dac~;
#X obj 413 656 env~ 16384;
#X floatatom 413 675 0 0 0 0 - - -;
#X obj 210 604 readsf~ 4 1e+06;
#X msg 219 535 start;
#X msg 219 558 stop;
#X obj 454 552 oneshot;
#X obj 386 591 bng 15 250 50 0 empty empty empty 17 7 0 10 -262144
-1 -1;
#X obj 456 508 tgl 15 0 empty empty empty 0 -6 0 8 -262144 -1 -1 0
13;
#X obj 457 480 tgl 15 0 empty empty empty 0 -6 0 8 -262144 -1 -1 0
13;
#X obj 454 584 tgl 15 0 empty empty empty 0 -6 0 8 -262144 -1 -1 0
13;
#X obj 201 659 *~ 0.5;
#X obj 260 658 *~ 0.5;
#X msg 420 608 clear;
#X obj 298 177 sel 1;
#X obj 299 134 r gallo;
#X msg 935 540 1;
#X msg 935 561 0;
#X obj 975 661 env~ 16384;
#X floatatom 975 680 0 0 0 0 - - -;
#X msg 936 583 print;
#X obj 856 693 dac~;
#X obj 1069 660 env~ 16384;
#X floatatom 1069 679 0 0 0 0 - - -;
#X obj 866 608 readsf~ 4 1e+06;
#X msg 875 539 start;
#X msg 875 562 stop;
#X obj 1110 556 oneshot;
#X obj 1042 595 bng 15 250 50 0 empty empty empty 17 7 0 10 -262144
-1 -1;
#X obj 1112 512 tgl 15 0 empty empty empty 0 -6 0 8 -262144 -1 -1 0
14;
#X obj 1113 484 tgl 15 0 empty empty empty 0 -6 0 8 -262144 -1 -1 0
14;
#X obj 1110 588 tgl 15 0 empty empty empty 0 -6 0 8 -262144 -1 -1 0
14;
#X obj 857 663 *~ 0.5;
#X obj 916 662 *~ 0.5;
#X msg 1167 531 clear;
#X obj 357 180 sel 1;
#X obj 358 137 r caballo;
#X floatatom 919 159 5 0 0 0 - - -;
#X msg 531 10 open vaca.wav;
#X msg 214 246 open pajaro.wav;
#X msg 205 483 open sapo.wav;
#X msg 571 259 open gallo.wav;
#X msg 518 490 open perro.wav;
#X msg 860 486 open caballo.wav;
#X connect 1 0 9 0;
#X connect 2 0 9 0;
#X connect 3 0 4 0;
#X connect 5 0 9 0;
#X connect 7 0 8 0;
#X connect 9 0 3 0;
#X connect 9 0 17 0;
#X connect 9 1 7 0;
#X connect 9 1 18 0;
#X connect 9 2 18 0;
#X connect 9 3 17 0;
#X connect 9 4 13 0;
#X connect 10 0 9 0;
#X connect 11 0 9 0;
#X connect 12 0 16 0;
#X connect 13 0 55 0;
#X connect 14 0 12 0;
#X connect 15 0 1 0;
#X connect 15 0 14 0;
#X connect 16 0 130 0;
#X connect 17 0 6 0;
#X connect 18 0 6 1;
#X connect 19 0 27 0;
#X connect 20 0 27 0;
#X connect 21 0 22 0;
#X connect 23 0 27 0;
#X connect 25 0 26 0;
#X connect 27 0 21 0;
#X connect 27 0 35 0;
#X connect 27 1 25 0;
#X connect 27 1 36 0;
#X connect 27 2 36 0;
#X connect 27 3 35 0;
#X connect 27 4 31 0;
#X connect 28 0 27 0;
#X connect 29 0 27 0;
#X connect 30 0 34 0;
#X connect 31 0 57 0;
#X connect 32 0 30 0;
#X connect 33 0 19 0;
#X connect 33 0 32 0;
#X connect 34 0 131 0;
#X connect 35 0 24 0;
#X connect 36 0 24 1;
#X connect 37 0 45 0;
#X connect 38 0 45 0;
#X connect 39 0 40 0;
#X connect 41 0 45 0;
#X connect 43 0 44 0;
#X connect 45 0 39 0;
#X connect 45 0 53 0;
#X connect 45 1 43 0;
#X connect 45 1 54 0;
#X connect 45 2 54 0;
#X connect 45 3 53 0;
#X connect 45 4 49 0;
#X connect 46 0 45 0;
#X connect 47 0 45 0;
#X connect 48 0 52 0;
#X connect 49 0 56 0;
#X connect 50 0 48 0;
#X connect 51 0 37 0;
#X connect 51 0 50 0;
#X connect 52 0 134 0;
#X connect 53 0 42 0;
#X connect 54 0 42 1;
#X connect 55 0 12 0;
#X connect 56 0 48 0;
#X connect 57 0 30 0;
#X connect 58 0 59 0;
#X connect 59 0 17 1;
#X connect 59 0 18 1;
#X connect 59 0 35 1;
#X connect 59 0 36 1;
#X connect 59 0 53 1;
#X connect 59 0 54 1;
#X connect 59 0 76 1;
#X connect 59 0 77 1;
#X connect 59 0 129 0;
#X connect 59 0 124 1;
#X connect 59 0 125 1;
#X connect 59 0 103 1;
#X connect 59 0 104 1;
#X connect 60 0 68 0;
#X connect 61 0 68 0;
#X connect 62 0 63 0;
#X connect 64 0 68 0;
#X connect 66 0 67 0;
#X connect 68 0 62 0;
#X connect 68 0 76 0;
#X connect 68 1 66 0;
#X connect 68 1 77 0;
#X connect 68 2 77 0;
#X connect 68 3 76 0;
#X connect 68 4 72 0;
#X connect 69 0 68 0;
#X connect 70 0 68 0;
#X connect 71 0 75 0;
#X connect 72 0 78 0;
#X connect 73 0 71 0;
#X connect 74 0 60 0;
#X connect 74 0 73 0;
#X connect 75 0 133 0;
#X connect 76 0 65 0;
#X connect 77 0 65 1;
#X connect 78 0 71 0;
#X connect 79 0 80 0;
#X connect 80 0 15 0;
#X connect 82 0 81 0;
#X connect 83 0 51 0;
#X connect 84 0 83 0;
#X connect 85 0 74 0;
#X connect 86 0 85 0;
#X connect 87 0 95 0;
#X connect 88 0 95 0;
#X connect 89 0 90 0;
#X connect 91 0 95 0;
#X connect 93 0 94 0;
#X connect 95 0 89 0;
#X connect 95 0 103 0;
#X connect 95 1 93 0;
#X connect 95 1 104 0;
#X connect 95 2 104 0;
#X connect 95 3 103 0;
#X connect 95 4 99 0;
#X connect 96 0 95 0;
#X connect 97 0 95 0;
#X connect 98 0 102 0;
#X connect 99 0 105 0;
#X connect 100 0 98 0;
#X connect 101 0 87 0;
#X connect 101 0 100 0;
#X connect 102 0 132 0;
#X connect 103 0 92 0;
#X connect 104 0 92 1;
#X connect 105 0 98 0;
#X connect 107 0 106 0;
#X connect 108 0 116 0;
#X connect 109 0 116 0;
#X connect 110 0 111 0;
#X connect 112 0 116 0;
#X connect 114 0 115 0;
#X connect 116 0 110 0;
#X connect 116 0 124 0;
#X connect 116 1 114 0;
#X connect 116 1 125 0;
#X connect 116 2 125 0;
#X connect 116 3 124 0;
#X connect 116 4 120 0;
#X connect 117 0 116 0;
#X connect 118 0 116 0;
#X connect 119 0 123 0;
#X connect 120 0 126 0;
#X connect 121 0 119 0;
#X connect 122 0 108 0;
#X connect 122 0 121 0;
#X connect 123 0 135 0;
#X connect 124 0 113 0;
#X connect 125 0 113 1;
#X connect 126 0 119 0;
#X connect 127 0 122 0;
#X connect 128 0 127 0;
#X connect 130 0 9 0;
#X connect 131 0 27 0;
#X connect 132 0 95 0;
#X connect 133 0 68 0;
#X connect 134 0 45 0;
#X connect 135 0 116 0;
#X restore 23 325 pd audio;
#N canvas 289 22 769 488 mim 1;
#X obj 25 29 inlet;
#X obj 81 29 inlet;
#X obj 123 30 inlet;
#X obj -12 529 pdp_glx;
#X obj 27 397 pdp_mgrid;
#X obj 81 77 bng 15 250 50 0 empty empty empty 20 8 0 8 -262144 -1
-1;
#X msg 27 77 stop;
#X floatatom 121 326 5 0 0 0 - - -;
#X floatatom 130 347 5 0 0 0 - - -;
#X floatatom 147 368 5 0 0 0 - - -;
#X floatatom 162 403 5 0 0 0 - - -;
#X floatatom 47 480 5 0 0 0 - - -;
#X floatatom 92 446 5 0 0 0 - - -;
#X msg 112 202 4;
#X msg 181 204 65;
#X obj 251 127 loadbang;
#X obj 251 164 delay 1000;
#X text 213 391 visibilidad grilla;
#X text 192 367 Y;
#X text 175 346 X;
#X text 167 326 Sensibilidad;
#X text 91 478 x;
#X text 154 441 y;
#X text 107 488 max 9;
#X msg 123 65 \; pd dsp 1;
#X obj 254 494 outlet;
#X obj 307 495 outlet;
#X msg 145 203 6;
#X msg 123 109 open /dev/video0;
#X msg 219 44 dim 320 240;
#X obj 411 457 &&;
#X obj 411 486 s vaca;
#X obj 17 148 pdp_ieee1394;
#X obj 398 430 == 2;
#X obj 483 456 &&;
#X obj 470 429 == 2;
#X obj 502 428 == 6;
#X obj 483 485 s perro;
#X obj 552 453 &&;
#X obj 552 482 s pajaro;
#X obj 539 426 == 3;
#X obj 575 426 == 4;
#X obj 427 541 &&;
#X obj 499 540 &&;
#X obj 568 537 &&;
#X obj 427 570 s sapo;
#X obj 414 514 == 8;
#X obj 446 513 == 9;
#X obj 486 513 == 9;
#X obj 518 512 == 5;
#X obj 499 569 s gallo;
#X obj 555 510 == 9;
#X obj 568 566 s caballo;
#X obj 591 510 == 3;
#X msg 75 203 8;
#X obj 27 109 metro 40;
#X obj 430 429 == 8;
#X connect 0 0 28 0;
#X connect 1 0 5 0;
#X connect 2 0 24 0;
#X connect 4 0 3 0;
#X connect 4 1 11 0;
#X connect 4 2 12 0;
#X connect 5 0 55 0;
#X connect 6 0 55 0;
#X connect 7 0 4 1;
#X connect 8 0 4 2;
#X connect 9 0 4 3;
#X connect 10 0 4 4;
#X connect 11 0 25 0;
#X connect 11 0 33 0;
#X connect 11 0 35 0;
#X connect 11 0 40 0;
#X connect 11 0 46 0;
#X connect 11 0 48 0;
#X connect 11 0 51 0;
#X connect 12 0 26 0;
#X connect 12 0 36 0;
#X connect 12 0 41 0;
#X connect 12 0 47 0;
#X connect 12 0 49 0;
#X connect 12 0 53 0;
#X connect 12 0 56 0;
#X connect 13 0 8 0;
#X connect 14 0 10 0;
#X connect 15 0 16 0;
#X connect 16 0 54 0;
#X connect 16 0 13 0;
#X connect 16 0 27 0;
#X connect 16 0 14 0;
#X connect 27 0 9 0;
#X connect 28 0 32 0;
#X connect 29 0 32 0;
#X connect 30 0 31 0;
#X connect 32 0 4 0;
#X connect 33 0 30 0;
#X connect 34 0 37 0;
#X connect 35 0 34 0;
#X connect 36 0 34 1;
#X connect 38 0 39 0;
#X connect 40 0 38 0;
#X connect 41 0 38 1;
#X connect 42 0 45 0;
#X connect 43 0 50 0;
#X connect 44 0 52 0;
#X connect 46 0 42 0;
#X connect 47 0 42 1;
#X connect 48 0 43 0;
#X connect 49 0 43 1;
#X connect 51 0 44 0;
#X connect 53 0 44 1;
#X connect 54 0 7 0;
#X connect 55 0 32 0;
#X connect 56 0 30 1;
#X restore 24 214 pd mim;
#X obj 26 66 bng 90 250 50 0 empty empty empty 17 7 0 10 -261234 -1
-1;
#X obj 148 66 bng 90 250 50 0 empty empty empty 17 7 0 10 -257985 -1
-1;
#X obj 255 66 bng 90 250 50 0 empty empty empty 17 7 0 10 -191407 -1
-1;
#X text 59 157 1;
#X text 184 158 2;
#X text 308 156 3;
#X text 22 179 abre cámara;
#X text 147 178 Captura cámara;
#X text 269 177 Audio;
#X text 19 485 ============================================================
;
#X text -23 34 ============================================================
;
#X text 8 9 Museo Interactivo Mirador.;
#X text 26 416 santorcuato76@gmail.com http://www.arselectronicachile.blogspot.com
;
#X text 23 469 Chile 2010;
#N canvas 151 25 995 634 audio 0;
#X msg 1285 17 clear;
#X msg 605 63 1;
#X msg 605 84 0;
#X obj 645 184 env~ 16384;
#X floatatom 645 203 0 0 0 0 - - -;
#X msg 606 106 print;
#X obj 526 216 dac~;
#X obj 739 183 env~ 16384;
#X floatatom 739 202 0 0 0 0 - - -;
#X obj 536 131 readsf~ 4 1e+06;
#X msg 545 62 start;
#X msg 545 85 stop;
#X obj 780 79 oneshot;
#X obj 712 118 bng 15 250 50 0 empty empty empty 17 7 0 10 -262144
-1 -1;
#X obj 782 35 tgl 15 0 empty empty empty 0 -6 0 8 -262144 -1 -1 0 1
;
#X obj 783 7 tgl 15 0 empty empty empty 0 -6 0 8 -262144 -1 -1 0 1
;
#X obj 780 111 tgl 15 0 empty empty empty 0 -6 0 8 -262144 -1 -1 0
1;
#X obj 527 186 *~ 0.5;
#X obj 586 185 *~ 0.5;
#X msg 288 299 1;
#X msg 288 320 0;
#X obj 328 420 env~ 16384;
#X floatatom 328 439 0 0 0 0 - - -;
#X msg 289 342 print;
#X obj 209 452 dac~;
#X obj 422 419 env~ 16384;
#X floatatom 422 438 0 0 0 0 - - -;
#X obj 219 367 readsf~ 4 1e+06;
#X msg 228 298 start;
#X msg 228 321 stop;
#X obj 210 422 *~ 0.5;
#X obj 269 421 *~ 0.5;
#X msg 281 545 1;
#X msg 281 566 0;
#X obj 321 666 env~ 16384;
#X floatatom 321 685 0 0 0 0 - - -;
#X msg 282 588 print;
#X obj 202 698 dac~;
#X obj 415 665 env~ 16384;
#X floatatom 415 684 0 0 0 0 - - -;
#X obj 212 613 readsf~ 4 1e+06;
#X msg 221 544 start;
#X msg 221 567 stop;
#X obj 456 561 oneshot;
#X obj 388 600 bng 15 250 50 0 empty empty empty 17 7 0 10 -262144
-1 -1;
#X obj 458 517 tgl 15 0 empty empty empty 0 -6 0 8 -262144 -1 -1 0
12;
#X obj 459 489 tgl 15 0 empty empty empty 0 -6 0 8 -262144 -1 -1 0
12;
#X obj 456 593 tgl 15 0 empty empty empty 0 -6 0 8 -262144 -1 -1 0
12;
#X obj 203 668 *~ 0.5;
#X obj 262 667 *~ 0.5;
#X msg 593 544 1;
#X msg 593 565 0;
#X obj 633 665 env~ 16384;
#X floatatom 633 684 0 0 0 0 - - -;
#X msg 594 587 print;
#X obj 514 697 dac~;
#X obj 727 664 env~ 16384;
#X floatatom 727 683 0 0 0 0 - - -;
#X obj 524 612 readsf~ 4 1e+06;
#X msg 533 543 start;
#X msg 533 566 stop;
#X obj 768 560 oneshot;
#X obj 700 599 bng 15 250 50 0 empty empty empty 17 7 0 10 -262144
-1 -1;
#X obj 770 516 tgl 15 0 empty empty empty 0 -6 0 8 -262144 -1 -1 0
14;
#X obj 771 488 tgl 15 0 empty empty empty 0 -6 0 8 -262144 -1 -1 0
14;
#X obj 768 592 tgl 15 0 empty empty empty 0 -6 0 8 -262144 -1 -1 0
14;
#X obj 515 667 *~ 0.5;
#X obj 574 666 *~ 0.5;
#X msg 857 70 clear;
#X msg 825 535 clear;
#X msg 408 544 clear;
#X obj 1002 36 inlet;
#X obj 1006 73 hsl 128 15 0 1 0 0 empty empty empty -2 -8 0 10 -257985
-1 -1 0 1;
#X floatatom 986 115 5 0 0 0 - - -;
#X obj 448 326 oneshot;
#X obj 450 282 tgl 15 0 empty empty empty 0 -6 0 8 -262144 -1 -1 0
14;
#X obj 451 254 tgl 15 0 empty empty empty 0 -6 0 8 -262144 -1 -1 0
14;
#X obj 448 358 tgl 15 0 empty empty empty 0 -6 0 8 -262144 -1 -1 0
14;
#X msg 585 333 clear;
#X obj 372 338 bng 15 250 50 0 empty empty empty 17 7 0 10 -262144
-1 -1;
#X msg 234 69 1;
#X msg 234 90 0;
#X obj 274 190 env~ 16384;
#X floatatom 274 209 0 0 0 0 - - -;
#X msg 235 112 print;
#X obj 155 222 dac~;
#X obj 368 189 env~ 16384;
#X floatatom 368 208 0 0 0 0 - - -;
#X obj 165 137 readsf~ 4 1e+06;
#X msg 174 68 start;
#X msg 174 91 stop;
#X obj 409 85 oneshot;
#X obj 341 124 bng 15 250 50 0 empty empty empty 17 7 0 10 -262144
-1 -1;
#X obj 411 41 tgl 15 0 empty empty empty 0 -6 0 8 -262144 -1 -1 0 1
;
#X obj 412 13 tgl 15 0 empty empty empty 0 -6 0 8 -262144 -1 -1 0 1
;
#X obj 409 117 tgl 15 0 empty empty empty 0 -6 0 8 -262144 -1 -1 0
1;
#X obj 156 192 *~ 0.5;
#X obj 215 191 *~ 0.5;
#X msg 486 76 clear;
#X msg 746 320 1;
#X msg 746 341 0;
#X obj 786 441 env~ 16384;
#X floatatom 786 460 0 0 0 0 - - -;
#X msg 747 363 print;
#X obj 667 473 dac~;
#X obj 880 440 env~ 16384;
#X floatatom 880 459 0 0 0 0 - - -;
#X obj 677 388 readsf~ 4 1e+06;
#X msg 686 319 start;
#X msg 686 342 stop;
#X obj 921 336 oneshot;
#X obj 853 375 bng 15 250 50 0 empty empty empty 17 7 0 10 -262144
-1 -1;
#X obj 923 292 tgl 15 0 empty empty empty 0 -6 0 8 -262144 -1 -1 0
1;
#X obj 924 264 tgl 15 0 empty empty empty 0 -6 0 8 -262144 -1 -1 0
1;
#X obj 921 368 tgl 15 0 empty empty empty 0 -6 0 8 -262144 -1 -1 0
1;
#X obj 668 443 *~ 0.5;
#X obj 727 442 *~ 0.5;
#X msg 998 327 clear;
#X obj -35 24 r vaca;
#X obj -36 67 sel 1;
#X obj 33 65 sel 1;
#X obj 34 22 r perro;
#X obj 91 63 sel 1;
#X obj 92 20 r pajaro;
#X obj -34 133 sel 1;
#X obj -33 90 r sapo;
#X obj 33 134 sel 1;
#X obj 34 91 r gallo;
#X obj 92 137 sel 1;
#X obj 93 94 r caballo;
#X msg 160 16 open bombo.wav;
#X msg 214 246 open platillo.wav;
#X msg 531 10 open caja.wav;
#X msg 672 267 open hi.wav;
#X msg 519 491 open hihat.wav;
#X msg 207 492 open tom.wav;
#X connect 1 0 9 0;
#X connect 2 0 9 0;
#X connect 3 0 4 0;
#X connect 5 0 9 0;
#X connect 7 0 8 0;
#X connect 9 0 3 0;
#X connect 9 0 17 0;
#X connect 9 1 7 0;
#X connect 9 1 18 0;
#X connect 9 2 18 0;
#X connect 9 3 17 0;
#X connect 9 4 13 0;
#X connect 10 0 9 0;
#X connect 11 0 9 0;
#X connect 12 0 16 0;
#X connect 13 0 68 0;
#X connect 14 0 12 0;
#X connect 15 0 1 0;
#X connect 15 0 14 0;
#X connect 16 0 132 0;
#X connect 17 0 6 0;
#X connect 18 0 6 1;
#X connect 19 0 27 0;
#X connect 20 0 27 0;
#X connect 21 0 22 0;
#X connect 23 0 27 0;
#X connect 25 0 26 0;
#X connect 27 0 21 0;
#X connect 27 0 30 0;
#X connect 27 1 25 0;
#X connect 27 1 31 0;
#X connect 27 2 31 0;
#X connect 27 3 30 0;
#X connect 27 4 79 0;
#X connect 28 0 27 0;
#X connect 29 0 27 0;
#X connect 30 0 24 0;
#X connect 31 0 24 1;
#X connect 32 0 40 0;
#X connect 33 0 40 0;
#X connect 34 0 35 0;
#X connect 36 0 40 0;
#X connect 38 0 39 0;
#X connect 40 0 34 0;
#X connect 40 0 48 0;
#X connect 40 1 38 0;
#X connect 40 1 49 0;
#X connect 40 2 49 0;
#X connect 40 3 48 0;
#X connect 40 4 44 0;
#X connect 41 0 40 0;
#X connect 42 0 40 0;
#X connect 43 0 47 0;
#X connect 44 0 70 0;
#X connect 45 0 43 0;
#X connect 46 0 32 0;
#X connect 46 0 45 0;
#X connect 47 0 135 0;
#X connect 48 0 37 0;
#X connect 49 0 37 1;
#X connect 50 0 58 0;
#X connect 51 0 58 0;
#X connect 52 0 53 0;
#X connect 54 0 58 0;
#X connect 56 0 57 0;
#X connect 58 0 52 0;
#X connect 58 0 66 0;
#X connect 58 1 56 0;
#X connect 58 1 67 0;
#X connect 58 2 67 0;
#X connect 58 3 66 0;
#X connect 58 4 62 0;
#X connect 59 0 58 0;
#X connect 60 0 58 0;
#X connect 61 0 65 0;
#X connect 62 0 69 0;
#X connect 63 0 61 0;
#X connect 64 0 50 0;
#X connect 64 0 63 0;
#X connect 65 0 134 0;
#X connect 66 0 55 0;
#X connect 67 0 55 1;
#X connect 68 0 12 0;
#X connect 69 0 61 0;
#X connect 70 0 43 0;
#X connect 71 0 72 0;
#X connect 72 0 17 1;
#X connect 72 0 18 1;
#X connect 72 0 30 1;
#X connect 72 0 31 1;
#X connect 72 0 48 1;
#X connect 72 0 49 1;
#X connect 72 0 66 1;
#X connect 72 0 67 1;
#X connect 72 0 73 0;
#X connect 72 0 97 1;
#X connect 72 0 96 1;
#X connect 72 0 115 1;
#X connect 72 0 116 1;
#X connect 74 0 77 0;
#X connect 75 0 74 0;
#X connect 76 0 75 0;
#X connect 76 0 19 0;
#X connect 77 0 131 0;
#X connect 78 0 74 0;
#X connect 79 0 78 0;
#X connect 80 0 88 0;
#X connect 81 0 88 0;
#X connect 82 0 83 0;
#X connect 84 0 88 0;
#X connect 86 0 87 0;
#X connect 88 0 82 0;
#X connect 88 0 96 0;
#X connect 88 1 86 0;
#X connect 88 1 97 0;
#X connect 88 2 97 0;
#X connect 88 3 96 0;
#X connect 88 4 92 0;
#X connect 89 0 88 0;
#X connect 90 0 88 0;
#X connect 91 0 95 0;
#X connect 92 0 98 0;
#X connect 93 0 91 0;
#X connect 94 0 80 0;
#X connect 94 0 93 0;
#X connect 96 0 85 0;
#X connect 97 0 85 1;
#X connect 98 0 91 0;
#X connect 99 0 107 0;
#X connect 100 0 107 0;
#X connect 101 0 102 0;
#X connect 103 0 107 0;
#X connect 105 0 106 0;
#X connect 107 0 101 0;
#X connect 107 0 115 0;
#X connect 107 1 105 0;
#X connect 107 1 116 0;
#X connect 107 2 116 0;
#X connect 107 3 115 0;
#X connect 107 4 111 0;
#X connect 108 0 107 0;
#X connect 109 0 107 0;
#X connect 110 0 114 0;
#X connect 111 0 117 0;
#X connect 112 0 110 0;
#X connect 113 0 99 0;
#X connect 113 0 112 0;
#X connect 114 0 133 0;
#X connect 115 0 104 0;
#X connect 116 0 104 1;
#X connect 117 0 110 0;
#X connect 118 0 119 0;
#X connect 119 0 46 0;
#X connect 121 0 120 0;
#X connect 122 0 76 0;
#X connect 123 0 122 0;
#X connect 124 0 15 0;
#X connect 125 0 124 0;
#X connect 127 0 126 0;
#X connect 128 0 113 0;
#X connect 129 0 128 0;
#X connect 130 0 88 0;
#X connect 131 0 27 0;
#X connect 132 0 9 0;
#X connect 133 0 107 0;
#X connect 134 0 58 0;
#X connect 135 0 40 0;
#X restore 137 322 pd audio;
#N canvas 138 37 995 634 audio 1;
#X msg 1285 17 clear;
#X msg 605 63 1;
#X msg 605 84 0;
#X obj 645 184 env~ 16384;
#X floatatom 645 203 0 0 0 0 - - -;
#X msg 606 106 print;
#X obj 526 216 dac~;
#X obj 739 183 env~ 16384;
#X floatatom 739 202 0 0 0 0 - - -;
#X obj 536 131 readsf~ 4 1e+06;
#X msg 545 62 start;
#X msg 545 85 stop;
#X obj 780 79 oneshot;
#X obj 712 118 bng 15 250 50 0 empty empty empty 17 7 0 10 -262144
-1 -1;
#X obj 782 35 tgl 15 0 empty empty empty 0 -6 0 8 -262144 -1 -1 0 1
;
#X obj 783 7 tgl 15 0 empty empty empty 0 -6 0 8 -262144 -1 -1 0 1
;
#X obj 780 111 tgl 15 0 empty empty empty 0 -6 0 8 -262144 -1 -1 0
1;
#X obj 527 186 *~ 0.5;
#X obj 586 185 *~ 0.5;
#X msg 288 299 1;
#X msg 288 320 0;
#X obj 328 420 env~ 16384;
#X floatatom 328 439 0 0 0 0 - - -;
#X msg 289 342 print;
#X obj 209 452 dac~;
#X obj 422 419 env~ 16384;
#X floatatom 422 438 0 0 0 0 - - -;
#X obj 219 367 readsf~ 4 1e+06;
#X msg 228 298 start;
#X msg 228 321 stop;
#X obj 463 315 oneshot;
#X obj 395 354 bng 15 250 50 0 empty empty empty 17 7 0 10 -262144
-1 -1;
#X obj 465 271 tgl 15 0 empty empty empty 0 -6 0 8 -262144 -1 -1 0
15;
#X obj 466 243 tgl 15 0 empty empty empty 0 -6 0 8 -262144 -1 -1 0
15;
#X obj 463 347 tgl 15 0 empty empty empty 0 -6 0 8 -262144 -1 -1 0
15;
#X obj 210 422 *~ 0.5;
#X obj 269 421 *~ 0.5;
#X msg 281 545 1;
#X msg 281 566 0;
#X obj 321 666 env~ 16384;
#X floatatom 321 685 0 0 0 0 - - -;
#X msg 282 588 print;
#X obj 202 698 dac~;
#X obj 415 665 env~ 16384;
#X floatatom 415 684 0 0 0 0 - - -;
#X obj 212 613 readsf~ 4 1e+06;
#X msg 221 544 start;
#X msg 221 567 stop;
#X obj 456 561 oneshot;
#X obj 388 600 bng 15 250 50 0 empty empty empty 17 7 0 10 -262144
-1 -1;
#X obj 458 517 tgl 15 0 empty empty empty 0 -6 0 8 -262144 -1 -1 0
12;
#X obj 459 489 tgl 15 0 empty empty empty 0 -6 0 8 -262144 -1 -1 0
12;
#X obj 456 593 tgl 15 0 empty empty empty 0 -6 0 8 -262144 -1 -1 0
12;
#X obj 203 668 *~ 0.5;
#X obj 262 667 *~ 0.5;
#X msg 593 544 1;
#X msg 593 565 0;
#X obj 633 665 env~ 16384;
#X floatatom 633 684 0 0 0 0 - - -;
#X msg 594 587 print;
#X obj 514 697 dac~;
#X obj 727 664 env~ 16384;
#X floatatom 727 683 0 0 0 0 - - -;
#X obj 524 612 readsf~ 4 1e+06;
#X msg 533 543 start;
#X msg 533 566 stop;
#X obj 768 560 oneshot;
#X obj 700 599 bng 15 250 50 0 empty empty empty 17 7 0 10 -262144
-1 -1;
#X obj 770 516 tgl 15 0 empty empty empty 0 -6 0 8 -262144 -1 -1 0
14;
#X obj 771 488 tgl 15 0 empty empty empty 0 -6 0 8 -262144 -1 -1 0
14;
#X obj 768 592 tgl 15 0 empty empty empty 0 -6 0 8 -262144 -1 -1 0
14;
#X obj 515 667 *~ 0.5;
#X obj 574 666 *~ 0.5;
#X msg 857 70 clear;
#X msg 825 535 clear;
#X msg 408 544 clear;
#X msg 429 371 clear;
#X obj 1001 36 inlet;
#X obj 1006 73 hsl 128 15 0 1 0 0 empty empty empty -2 -8 0 10 -4032
-1 -1 0 1;
#X floatatom 986 115 5 0 0 0 - - -;
#X msg 278 70 1;
#X msg 278 91 0;
#X obj 318 191 env~ 16384;
#X floatatom 318 210 0 0 0 0 - - -;
#X msg 279 113 print;
#X obj 199 223 dac~;
#X obj 412 190 env~ 16384;
#X floatatom 412 209 0 0 0 0 - - -;
#X obj 209 138 readsf~ 4 1e+06;
#X msg 218 69 start;
#X msg 218 92 stop;
#X obj 453 86 oneshot;
#X obj 385 125 bng 15 250 50 0 empty empty empty 17 7 0 10 -262144
-1 -1;
#X obj 455 42 tgl 15 0 empty empty empty 0 -6 0 8 -262144 -1 -1 0 15
;
#X obj 456 14 tgl 15 0 empty empty empty 0 -6 0 8 -262144 -1 -1 0 15
;
#X obj 453 118 tgl 15 0 empty empty empty 0 -6 0 8 -262144 -1 -1 0
15;
#X obj 200 193 *~ 0.5;
#X obj 259 192 *~ 0.5;
#X msg 419 142 clear;
#X msg 645 311 1;
#X msg 645 332 0;
#X obj 685 432 env~ 16384;
#X floatatom 685 451 0 0 0 0 - - -;
#X msg 646 354 print;
#X obj 566 464 dac~;
#X obj 779 431 env~ 16384;
#X floatatom 779 450 0 0 0 0 - - -;
#X obj 576 379 readsf~ 4 1e+06;
#X msg 585 310 start;
#X msg 585 333 stop;
#X obj 820 327 oneshot;
#X obj 752 366 bng 15 250 50 0 empty empty empty 17 7 0 10 -262144
-1 -1;
#X obj 822 283 tgl 15 0 empty empty empty 0 -6 0 8 -262144 -1 -1 0
15;
#X obj 823 255 tgl 15 0 empty empty empty 0 -6 0 8 -262144 -1 -1 0
15;
#X obj 820 359 tgl 15 0 empty empty empty 0 -6 0 8 -262144 -1 -1 0
15;
#X obj 567 434 *~ 0.5;
#X obj 626 433 *~ 0.5;
#X msg 786 383 clear;
#X obj 0 23 r vaca;
#X obj -1 66 sel 1;
#X obj 68 64 sel 1;
#X obj 69 21 r perro;
#X obj 126 62 sel 1;
#X obj 127 19 r pajaro;
#X obj 1 132 sel 1;
#X obj 2 89 r sapo;
#X obj 68 133 sel 1;
#X obj 69 90 r gallo;
#X obj 127 136 sel 1;
#X obj 128 93 r caballo;
#X msg 204 17 open loop.wav;
#X msg 531 10 open slap.wav;
#X msg 214 246 open saxo.wav;
#X msg 571 258 open house.wav;
#X msg 207 492 open voz.wav;
#X msg 519 491 open hihat.wav;
#X connect 1 0 9 0;
#X connect 2 0 9 0;
#X connect 3 0 4 0;
#X connect 5 0 9 0;
#X connect 7 0 8 0;
#X connect 9 0 3 0;
#X connect 9 0 17 0;
#X connect 9 1 7 0;
#X connect 9 1 18 0;
#X connect 9 2 18 0;
#X connect 9 3 17 0;
#X connect 9 4 13 0;
#X connect 10 0 9 0;
#X connect 11 0 9 0;
#X connect 12 0 16 0;
#X connect 13 0 73 0;
#X connect 14 0 12 0;
#X connect 15 0 1 0;
#X connect 15 0 14 0;
#X connect 16 0 131 0;
#X connect 17 0 6 0;
#X connect 18 0 6 1;
#X connect 19 0 27 0;
#X connect 20 0 27 0;
#X connect 21 0 22 0;
#X connect 23 0 27 0;
#X connect 25 0 26 0;
#X connect 27 0 21 0;
#X connect 27 0 35 0;
#X connect 27 1 25 0;
#X connect 27 1 36 0;
#X connect 27 2 36 0;
#X connect 27 3 35 0;
#X connect 27 4 31 0;
#X connect 28 0 27 0;
#X connect 29 0 27 0;
#X connect 30 0 34 0;
#X connect 31 0 76 0;
#X connect 32 0 30 0;
#X connect 33 0 19 0;
#X connect 33 0 32 0;
#X connect 34 0 132 0;
#X connect 35 0 24 0;
#X connect 36 0 24 1;
#X connect 37 0 45 0;
#X connect 38 0 45 0;
#X connect 39 0 40 0;
#X connect 41 0 45 0;
#X connect 43 0 44 0;
#X connect 45 0 39 0;
#X connect 45 0 53 0;
#X connect 45 1 43 0;
#X connect 45 1 54 0;
#X connect 45 2 54 0;
#X connect 45 3 53 0;
#X connect 45 4 49 0;
#X connect 46 0 45 0;
#X connect 47 0 45 0;
#X connect 48 0 52 0;
#X connect 49 0 75 0;
#X connect 50 0 48 0;
#X connect 51 0 37 0;
#X connect 51 0 50 0;
#X connect 52 0 134 0;
#X connect 53 0 42 0;
#X connect 54 0 42 1;
#X connect 55 0 63 0;
#X connect 56 0 63 0;
#X connect 57 0 58 0;
#X connect 59 0 63 0;
#X connect 61 0 62 0;
#X connect 63 0 57 0;
#X connect 63 0 71 0;
#X connect 63 1 61 0;
#X connect 63 1 72 0;
#X connect 63 2 72 0;
#X connect 63 3 71 0;
#X connect 63 4 67 0;
#X connect 64 0 63 0;
#X connect 65 0 63 0;
#X connect 66 0 70 0;
#X connect 67 0 74 0;
#X connect 68 0 66 0;
#X connect 69 0 55 0;
#X connect 69 0 68 0;
#X connect 70 0 135 0;
#X connect 71 0 60 0;
#X connect 72 0 60 1;
#X connect 73 0 12 0;
#X connect 74 0 66 0;
#X connect 75 0 48 0;
#X connect 76 0 30 0;
#X connect 77 0 78 0;
#X connect 78 0 17 1;
#X connect 78 0 18 1;
#X connect 78 0 35 1;
#X connect 78 0 36 1;
#X connect 78 0 53 1;
#X connect 78 0 54 1;
#X connect 78 0 71 1;
#X connect 78 0 72 1;
#X connect 78 0 79 0;
#X connect 78 0 96 1;
#X connect 78 0 97 1;
#X connect 78 0 115 1;
#X connect 78 0 116 1;
#X connect 80 0 88 0;
#X connect 81 0 88 0;
#X connect 82 0 83 0;
#X connect 84 0 88 0;
#X connect 86 0 87 0;
#X connect 88 0 82 0;
#X connect 88 0 96 0;
#X connect 88 1 86 0;
#X connect 88 1 97 0;
#X connect 88 2 97 0;
#X connect 88 3 96 0;
#X connect 88 4 92 0;
#X connect 89 0 88 0;
#X connect 90 0 88 0;
#X connect 91 0 95 0;
#X connect 92 0 98 0;
#X connect 93 0 91 0;
#X connect 94 0 80 0;
#X connect 94 0 93 0;
#X connect 95 0 130 0;
#X connect 96 0 85 0;
#X connect 97 0 85 1;
#X connect 98 0 91 0;
#X connect 99 0 107 0;
#X connect 100 0 107 0;
#X connect 101 0 102 0;
#X connect 103 0 107 0;
#X connect 105 0 106 0;
#X connect 107 0 101 0;
#X connect 107 0 115 0;
#X connect 107 1 105 0;
#X connect 107 1 116 0;
#X connect 107 2 116 0;
#X connect 107 3 115 0;
#X connect 107 4 111 0;
#X connect 108 0 107 0;
#X connect 109 0 107 0;
#X connect 110 0 114 0;
#X connect 111 0 117 0;
#X connect 112 0 110 0;
#X connect 113 0 99 0;
#X connect 113 0 112 0;
#X connect 114 0 133 0;
#X connect 115 0 104 0;
#X connect 116 0 104 1;
#X connect 117 0 110 0;
#X connect 118 0 119 0;
#X connect 119 0 15 0;
#X connect 121 0 120 0;
#X connect 122 0 33 0;
#X connect 123 0 122 0;
#X connect 124 0 51 0;
#X connect 125 0 124 0;
#X connect 127 0 126 0;
#X connect 128 0 94 0;
#X connect 129 0 128 0;
#X connect 130 0 88 0;
#X connect 131 0 9 0;
#X connect 132 0 27 0;
#X connect 133 0 107 0;
#X connect 134 0 45 0;
#X connect 135 0 63 0;
#X restore 219 324 pd audio;
#X obj 532 158 bng 15 250 50 0 empty empty empty 17 7 0 10 -262144
-1 -1;
#X obj 631 208 delay 45000;
#X msg 530 257 1;
#X msg 565 258 0;
#X msg 621 256 1;
#X msg 659 256 0;
#X obj 717 207 delay 90000;
#X msg 715 257 1;
#X msg 763 256 0;
#X obj 795 207 delay 45000;
#X obj 23 286 line;
#X obj 138 282 line;
#X obj 221 277 line;
#X obj 523 13 loadbang;
#X obj 523 49 delay 1000;
#X obj 602 49 delay 2000;
#X obj 678 49 delay 3000;
#X connect 0 0 1 0;
#X connect 3 0 4 0;
#X connect 8 0 7 0;
#X connect 9 0 7 1;
#X connect 10 0 7 2;
#X connect 10 0 24 0;
#X connect 24 0 25 0;
#X connect 24 0 26 0;
#X connect 24 0 27 0;
#X connect 24 0 30 0;
#X connect 25 0 28 0;
#X connect 25 0 29 0;
#X connect 26 0 34 0;
#X connect 27 0 35 0;
#X connect 27 0 36 0;
#X connect 28 0 35 0;
#X connect 29 0 34 0;
#X connect 29 0 36 0;
#X connect 30 0 31 0;
#X connect 30 0 32 0;
#X connect 30 0 33 0;
#X connect 31 0 36 0;
#X connect 32 0 35 0;
#X connect 32 0 34 0;
#X connect 33 0 24 0;
#X connect 34 0 6 0;
#X connect 35 0 22 0;
#X connect 36 0 23 0;
#X connect 37 0 38 0;
#X connect 37 0 39 0;
#X connect 37 0 40 0;
#X connect 38 0 8 0;
#X connect 39 0 9 0;
#X connect 40 0 10 0;
